Coordinates
version=1
nRows=19
nColumns=36
inDegrees=yes

Units are S.I. units (second, meters, Newtons, ...)
If the header above contains a line with 'inDegrees', this indicates whether rotational values are in degrees (yes) or radians (no).

endheader
time	pelvis_tilt	pelvis_list	pelvis_rotation	pelvis_tx	pelvis_ty	pelvis_tz	hip_flexion_r	hip_adduction_r	hip_rotation_r	knee_angle_r	knee_angle_r_beta	ankle_angle_r	subtalar_angle_r	mtp_angle_r	hip_flexion_l	hip_adduction_l	hip_rotation_l	knee_angle_l	knee_angle_l_beta	ankle_angle_l	subtalar_angle_l	mtp_angle_l	lumbar_extension	lumbar_bending	lumbar_rotation	arm_flex_r	arm_add_r	arm_rot_r	elbow_flex_r	pro_sup_r	arm_flex_l	arm_add_l	arm_rot_l	elbow_flex_l	pro_sup_l
      0.00000000	      6.30587367	     -2.27099685	     -7.27330916	      0.64925384	      0.93565101	      0.78647392	     -1.05530760	      4.01434794	      0.92569081	      9.09080574	      0.15866449	      5.20875427	     -9.10503197	     -7.12004801	      8.92177333	     -4.80298418	     -1.65745916	     56.03781239	      0.97804433	     -0.04835607	    -13.38875520	     -7.12004801	    -11.34654401	      1.50565724	      3.43033021	      4.41282945	     -9.94245557	     -0.82463961	     26.68872329	     90.53345348	      5.99203387	     -8.42359985	      6.92284394	     17.78805193	     86.39683196
      0.01666670	      6.23893807	     -2.30729098	     -7.20669202	      0.64466750	      0.93542207	      0.78647087	     -2.14135534	      4.24081013	     -0.01686189	      8.39553747	      0.14652977	      5.94985833	     -6.70819144	     -7.13120400	     11.46681801	     -5.26505811	     -2.61484748	     55.40387867	      0.96698010	      1.61417902	    -13.98970996	     -7.13120400	    -11.08130153	      1.51241185	      4.00677736	      5.44440610	    -10.24089646	     -0.88777709	     27.53341173	     89.32530151	      6.11996860	     -8.40496582	      8.56302435	     17.94005391	     86.09766212
      0.03333330	      6.84156552	     -2.03411371	     -7.11801184	      0.63600666	      0.93551576	      0.78597322	     -3.73738496	      3.99612507	     -0.00817030	      8.11623318	      0.14165499	      6.61366961	     -6.32958116	     -7.27908298	     12.88750915	     -5.20950163	     -3.24794196	     53.58063153	      0.93515844	      2.78473521	    -13.42252068	     -7.27908298	    -11.94819275	      1.31749609	      4.65280022	      6.97212660	    -10.91680688	     -1.01486096	     28.85084773	     93.49101495	      6.82879188	     -8.78131853	     10.19147283	     17.50870103	     91.70328273
      0.05000000	      6.67506010	     -1.61090696	     -6.86635339	      0.62530197	      0.93396244	      0.78417786	     -4.23919925	      3.71229157	     -0.41982822	      7.85377366	      0.13707421	      7.85885581	     -5.70618323	     -7.30155951	     14.93954541	     -5.10894673	     -4.16442354	     50.72559765	      0.88532869	      2.95257718	    -13.45782563	     -7.30155951	    -12.20727137	      1.07497191	      4.79938990	      9.30431154	    -11.74147162	      0.88449152	     29.42404003	     93.86307284	      7.11626516	     -9.09339917	     11.21318009	     17.34423860	     92.51674814
      0.06666670	      6.68760296	     -1.21362757	     -6.85977341	      0.61513970	      0.93384167	      0.78213083	     -4.69020071	      3.34628988	     -0.82799022	      7.99906448	      0.13961001	      9.01357932	     -5.29228389	     -7.30766713	     16.52469794	     -4.85062584	     -5.00963321	     47.06441146	      0.82142894	      2.62185116	    -13.88247403	     -7.30766713	    -12.98499242	      0.81767867	      5.18728480	     11.90191946	    -12.41928015	      1.66407477	     30.64632428	     91.63985466	      7.23676164	     -9.27894525	     11.24034697	     17.63889452	     90.47732136
      0.08333330	      6.35669692	     -0.98256660	     -7.07157662	      0.60871215	      0.93411617	      0.78167295	     -4.81734486	      3.13784426	     -0.57375653	      8.13183823	      0.14192735	      9.49234422	     -5.71426417	     -7.31469602	     18.29288558	     -4.86125453	     -5.77526699	     43.11500096	      0.75249872	      2.07518633	    -13.60474430	     -7.31469602	    -13.38970358	      0.67889932	      5.89766629	     14.57409844	    -13.28280441	      3.47629657	     31.48327495	     89.64787253	      7.40989339	     -9.42031869	     11.61051766	     17.15933040	     88.70478503
      0.10000000	      5.54076827	     -0.90591347	     -7.04564601	      0.60593351	      0.93190790	      0.78318518	     -4.70268733	      3.07796749	     -0.76321320	      8.03186364	      0.14018247	     10.19903054	     -5.32274006	     -7.38542879	     20.53767926	     -5.08135550	     -6.13413646	     39.01751464	      0.68098410	      1.55688979	    -13.07661266	     -7.38542879	    -13.08319911	      0.91392545	      5.95832166	     17.27544580	    -14.20900359	      6.29938561	     31.92563893	     94.43103416	      6.98596315	     -9.61753845	      9.33003631	     16.96508280	     98.21666397
      0.11666670	      4.79601408	     -0.87210305	     -6.96431090	      0.60411445	      0.92792955	      0.78622276	     -4.98976515	      3.05783798	     -0.76304832	      7.56086603	      0.13196201	     10.99825557	     -4.88908571	     -7.38910693	     22.53037745	     -5.33731664	     -6.23352692	     34.72476186	      0.60606143	      1.08141510	    -12.53629447	     -7.38910693	    -12.90967339	      1.06650539	      6.26623617	     19.10916291	    -14.64290858	      6.46677124	     33.23618994	     94.00631118	      6.64607196	     -9.89434871	      9.20681722	     16.86256705	     97.71793328
      0.13333330	      4.17744045	     -0.90893392	     -6.99211515	      0.60235903	      0.92227329	      0.78801278	     -5.57336039	      3.11984603	     -0.35638134	      6.97123714	      0.12167104	     11.88261461	     -4.89059309	     -7.39319073	     24.18942361	     -5.65328957	     -6.20089768	     30.53891948	      0.53300469	      1.26376681	    -11.92004463	     -7.39319073	    -12.86070988	      1.21100402	      6.67001963	     20.82156357	    -15.23990711	      7.12797565	     34.83095516	     92.81543373	      6.45399293	     -9.99996610	      8.84353830	     16.35452861	     96.35980209
      0.15000000	      3.49514683	     -1.13017057	     -6.87935553	      0.60157846	      0.91532987	      0.78664569	     -6.21070272	      3.39450983	     -0.14315196	      6.43513512	      0.11231430	     12.67694723	     -4.89505387	     -7.39129235	     25.81360896	     -5.92564790	     -5.41091500	     26.91358049	      0.46973059	      2.05037434	    -11.62914535	     -7.39129235	    -12.60536189	      1.66517175	      7.03603939	     22.55447490	    -15.83787819	      6.98200565	     35.48581134	     93.14428164	      6.28603322	     -9.88214987	      8.82759141	     15.71216219	     96.80500795
      0.16666670	      2.41313358	     -0.92234304	     -7.06334999	      0.60279381	      0.90903362	      0.78470448	     -6.34426549	      3.18642129	     -0.57916307	      6.48166375	      0.11312637	     14.90639743	     -2.83331857	     -7.39578992	     27.28910237	     -5.95750179	     -5.48792078	     23.25108574	      0.40580800	      3.49415581	     -9.34881002	     -7.39578992	    -11.65466546	      1.64486028	      6.92648590	     23.32895963	    -16.47113701	      7.79638146	     38.26391889	     93.06817638	      5.36854262	     -9.76023549	      7.50719227	     15.08000426	     96.99459718
      0.18333330	      1.58680987	     -0.82631505	     -7.19368565	      0.60490659	      0.90629349	      0.78232870	     -6.96065545	      3.10010757	     -0.27992288	      6.45820475	      0.11271694	     16.00173910	     -2.02511706	     -7.38997456	     28.16307925	     -5.78773436	     -4.96517248	     19.75722137	      0.34482856	      4.32803031	     -7.79117862	     -7.38997456	    -10.77711973	      1.72581682	      6.86176603	     23.95447416	    -16.85790727	      7.55004805	     39.62032934	     92.20515010	      4.41166733	     -9.51759587	      6.88800566	     14.72662455	     96.44312717
      0.20000000	      0.51217376	     -0.64540875	     -7.51820116	      0.60815420	      0.90542590	      0.77965444	     -7.33242810	      2.90008639	      0.31960239	      6.56333724	      0.11455184	     16.73891715	     -1.43120176	     -7.41772837	     29.00160745	     -5.53789653	     -4.96639574	     16.65111293	      0.29061674	      5.39900472	     -5.36555113	     -7.41772837	     -9.37601265	      1.73659831	      6.85483032	     23.98938620	    -17.18801138	      7.02029554	     40.55784406	     95.14112449	      3.23193267	     -8.99255135	      3.88017656	     14.48114588	    100.20866080
      0.21666670	     -0.35764419	     -0.29399666	     -7.78835336	      0.61082279	      0.90313350	      0.77654099	     -7.84481939	      2.41150649	      0.61263837	      6.81664985	      0.11897298	     17.51822885	     -0.68453627	     -7.42575756	     29.48223967	     -4.89163011	     -4.94316987	     14.24959920	      0.24870242	      6.10130964	     -3.36773241	     -7.42575756	     -7.97030524	      1.51956555	      7.08706936	     23.45276799	    -17.71850933	      6.82231573	     41.25286496	     94.71071183	      2.42666911	     -8.58449328	      4.00699671	     13.94506228	     99.93450963
      0.23333330	     -0.98874205	      0.23993006	     -8.09797984	      0.61158949	      0.90087887	      0.77404675	     -8.43537483	      1.62804869	      0.94698431	      7.30615691	      0.12751649	     18.24688398	     -0.31476047	     -7.42285094	     29.68089246	     -3.97488271	     -5.06725250	     12.99961985	      0.22688617	      6.49832176	     -1.87659574	     -7.42285094	     -6.70914445	      1.06304463	      7.14960343	     22.94460763	    -17.94767842	      6.39414416	     41.38566538	     94.61133713	      1.54692386	     -8.20524037	      3.61793105	     13.75208661	    100.05931992
      0.25000000	     -1.52549659	      0.77456767	     -8.40599046	      0.61209087	      0.89985674	      0.77251401	     -8.87464885	      0.80493403	      1.22504143	      8.17132214	      0.14261648	     18.84488017	     -0.26105678	     -7.43170542	     29.86456577	     -3.02915639	     -5.04352940	     13.05061969	      0.22777628	      6.36100544	     -1.31248329	     -7.43170542	     -5.40071539	      0.58049764	      7.35097250	     22.26509361	    -18.27462285	      6.49214291	     41.12035306	     93.63014250	      0.96506544	     -7.93784864	      4.03256642	     13.40181973	     98.54347158
      0.26666670	     -1.87239612	      1.33046744	     -8.71446309	      0.61403953	      0.89793361	      0.77159978	     -9.27308006	     -0.09356498	      1.41915010	      9.40675351	      0.16417882	     19.18244097	     -0.30311219	     -7.44019577	     29.85061274	     -2.07371308	     -4.93575976	     13.86577342	      0.24200340	      5.67011385	     -1.26613441	     -7.44019577	     -4.28591515	      0.01691981	      7.54763485	     21.47691163	    -18.43026751	      6.24720280	     40.63942312	     93.07811411	      0.51865494	     -7.74914282	      4.59287332	     13.07917949	     97.44958155
      0.28333330	     -2.03747578	      1.85658620	     -8.94294630	      0.61730814	      0.89274731	      0.77131037	     -9.56282733	     -0.97807302	      1.48656210	     11.12661907	      0.19419614	     19.20094192	     -0.47308738	     -7.45112310	     29.65184601	     -1.17061110	     -4.70120884	     14.98035850	      0.26145658	      4.55676486	     -1.52470488	     -7.45112310	     -3.43709531	     -0.61274278	      7.64426914	     20.64061484	    -18.43453734	      5.90050428	     40.17017791	     91.99481344	      0.19568290	     -7.70783913	      5.13262446	     12.92348115	     95.86607168
      0.30000000	     -2.21484458	      2.33549575	     -9.13215297	      0.62203764	      0.88712112	      0.77155773	     -9.53528959	     -1.79911760	      1.77615224	     13.36688112	      0.23329609	     18.71176733	     -1.32205290	     -7.46646740	     29.44716059	     -0.40365804	     -4.36280190	     16.24754015	      0.28357307	      3.18627554	     -2.20036319	     -7.46646740	     -2.61122064	     -1.24458605	      8.10522908	     19.10691911	    -18.35817145	      3.72284753	     40.17547118	     95.66724285	      0.03924788	     -7.80582452	      5.14695793	     13.07844663	     98.04235970
